<?xml version="1.0" standalone="no"?>
<svg xmlns:xlink="http://www.w3.org/1999/xlink" id="wave" style="transform:rotate(0deg); transition: 0.3s" viewBox="0 0 1440 220" version="1.1" xmlns="http://www.w3.org/2000/svg"><defs><linearGradient id="sw-gradient-0" x1="0" x2="0" y1="1" y2="0"><stop stop-color="rgba(255, 255, 255, 1)" offset="0%"/><stop stop-color="rgba(252.32, 252.32, 252.32, 1)" offset="100%"/></linearGradient></defs><path style="transform:translate(0, 0px); opacity:1" fill="url(#sw-gradient-0)" d="M0,0L80,0C160,0,320,0,480,33C640,66,800,132,960,146.7C1120,161,1280,125,1440,106.3C1600,88,1760,88,1920,102.7C2080,117,2240,147,2400,139.3C2560,132,2720,88,2880,84.3C3040,81,3200,117,3360,132C3520,147,3680,139,3840,132C4000,125,4160,117,4320,124.7C4480,132,4640,154,4800,150.3C4960,147,5120,117,5280,99C5440,81,5600,73,5760,73.3C5920,73,6080,81,6240,69.7C6400,59,6560,29,6720,22C6880,15,7040,29,7200,36.7C7360,44,7520,44,7680,40.3C7840,37,8000,29,8160,29.3C8320,29,8480,37,8640,62.3C8800,88,8960,132,9120,146.7C9280,161,9440,147,9600,146.7C9760,147,9920,161,10080,165C10240,169,10400,161,10560,161.3C10720,161,10880,169,11040,143C11200,117,11360,59,11440,29.3L11520,0L11520,220L11440,220C11360,220,11200,220,11040,220C10880,220,10720,220,10560,220C10400,220,10240,220,10080,220C9920,220,9760,220,9600,220C9440,220,9280,220,9120,220C8960,220,8800,220,8640,220C8480,220,8320,220,8160,220C8000,220,7840,220,7680,220C7520,220,7360,220,7200,220C7040,220,6880,220,6720,220C6560,220,6400,220,6240,220C6080,220,5920,220,5760,220C5600,220,5440,220,5280,220C5120,220,4960,220,4800,220C4640,220,4480,220,4320,220C4160,220,4000,220,3840,220C3680,220,3520,220,3360,220C3200,220,3040,220,2880,220C2720,220,2560,220,2400,220C2240,220,2080,220,1920,220C1760,220,1600,220,1440,220C1280,220,1120,220,960,220C800,220,640,220,480,220C320,220,160,220,80,220L0,220Z"/></svg>